PathFileType	4	(X/Y/Z)	/Users/itak/Documents/Research/Walk-IL/dataset/trc/00020_00004.trc
DataRate	CameraRate	NumFrames	NumMarkers	Units	OrigDataRate	OrigDataStartFrame	OrigNumFrames
100.000000	100.000000	4	53	mm	100.000000	336	896
Frame#	Time	RPSI			LPSI			L3			STRN			T10			C7			CLAV			RBAK			LBAK			LSHO			LUPA			LAEL			LAOL			LWTS			LWPS			LFRA			LIFD			LHPS			LHTS			RSHO			RUPA			RAEL			RAOL			RWTS			RWPS			RFRA			RIFD			RHTS			RHPS			RBHD			LFHD			RFHD			LBHD			LHIP			RHIP			RASI			LASI			LKNE			LTHI			LANK			LTIP			LTOE			LMT1			LMT5			LHEE			RKNE			RTHI			RANK			RTIP			RTOE			RMT1			RMT5			RHEE			
		X1	Y1	Z1	X2	Y2	Z2	X3	Y3	Z3	X4	Y4	Z4	X5	Y5	Z5	X6	Y6	Z6	X7	Y7	Z7	X8	Y8	Z8	X9	Y9	Z9	X10	Y10	Z10	X11	Y11	Z11	X12	Y12	Z12	X13	Y13	Z13	X14	Y14	Z14	X15	Y15	Z15	X16	Y16	Z16	X17	Y17	Z17	X18	Y18	Z18	X19	Y19	Z19	X20	Y20	Z20	X21	Y21	Z21	X22	Y22	Z22	X23	Y23	Z23	X24	Y24	Z24	X25	Y25	Z25	X26	Y26	Z26	X27	Y27	Z27	X28	Y28	Z28	X29	Y29	Z29	X30	Y30	Z30	X31	Y31	Z31	X32	Y32	Z32	X33	Y33	Z33	X34	Y34	Z34	X35	Y35	Z35	X36	Y36	Z36	X37	Y37	Z37	X38	Y38	Z38	X39	Y39	Z39	X40	Y40	Z40	X41	Y41	Z41	X42	Y42	Z42	X43	Y43	Z43	X44	Y44	Z44	X45	Y45	Z45	X46	Y46	Z46	X47	Y47	Z47	X48	Y48	Z48	X49	Y49	Z49	X50	Y50	Z50	X51	Y51	Z51	X52	Y52	Z52	X53	Y53	Z53	

337	3.36	1131.222290039062	1050.699584960938	-89.7926025390625	969.8356323242188	1029.045776367188	-72.54613494873047	1044.734130859375	1104.998901367188	-74.17290496826172	1012.8896484375	1289.259765625	-302.3423767089844	1052.0322265625	1250.76513671875	-55.50907135009766	1028.50244140625	1515.9169921875	-110.385383605957	1010.138000488281	1415.244140625	-261.57763671875	1122.549926757812	1384.351806640625	-63.84077072143555	938.7701416015625	1471.845336914062	-74.07167053222656	847.9501953125	1469.423828125	-161.3024749755859	784.0593872070312	1349.927856445312	-98.87044525146484	763.3507690429688	1139.220336914062	-53.58343124389648	866.6461181640625	1133.010009765625	-26.7375316619873	786.9735717773438	876.5325927734375	-120.4490280151367	778.6083374023438	871.1690063476562	-32.63016510009766	754.59814453125	1022.676025390625	-46.59443283081055	800.1407470703125	689.9157104492188	-135.1143188476562	770.2337036132812	777.7102661132812	-54.17350387573242	768.7463989257812	781.3598022460938	-124.9116058349609	1185.638427734375	1504.742919921875	-214.6484069824219	1264.120849609375	1442.2265625	-210.8327026367188	1348.986328125	1190.59765625	-186.8097381591797	1263.212890625	1144.43701171875	-161.8389282226562	1335.666748046875	928.23046875	-308.4968872070312	1416.8466796875	925.8435668945312	-265.3058166503906	1374.65576171875	1119.042236328125	-205.399658203125	1329.675170898438	748.4917602539062	-322.7658386230469	1352.3349609375	823.6159057617188	-348.0873718261719	1416.891235351562	823.5445556640625	-308.6294555664062	1074.828491210938	1695.630004882812	-260.2970275878906	882.06591796875	1655.474975585938	-337.2885131835938	964.258544921875	1661.068115234375	-391.7478332519531	958.2276611328125	1692.270629882812	-175.4835205078125	852.7327880859375	928.5028076171875	-167.1096649169922	1226.693603515625	943.0256958007812	-212.7245941162109	1145.360717773438	969.9530639648438	-309.7990112304688	910.0637817382812	982.15185546875	-279.6454162597656	920.5613403320312	535.2488403320312	-397.02099609375	877.6649780273438	644.8490600585938	-307.585205078125	1019.789367675781	39.12367248535156	-339.6022644042969	955.9702758789062	281.463134765625	-340.1097106933594	1044.8369140625	68.09529876708984	-559.517578125	1070.776489257812	69.94236755371094	-505.3753051757812	978.11962890625	51.66222763061523	-456.914306640625	1079.080932617188	50.07539367675781	-279.6329650878906	1194.400756835938	506.8671264648438	-177.8550262451172	1226.44189453125	774.9276123046875	-222.0662994384766	1178.295166015625	34.98472595214844	-15.2368221282959	1196.255493164062	386.0195007324219	-139.7860260009766	1136.446411132812	27.3787784576416	-250.9759368896484	1114.417724609375	40.5351448059082	-185.7588500976562	1207.940795898438	27.45083045959473	-162.5485229492188	1132.13671875	38.02079010009766	39.90856552124023	
338	3.37	1132.380126953125	1049.42724609375	-97.62841033935547	971.0368041992188	1027.315063476562	-79.84474945068359	1045.772338867188	1103.440185546875	-81.68576812744141	1012.284729003906	1287.783569335938	-309.443115234375	1052.917358398438	1249.21923828125	-62.98330688476562	1028.529052734375	1514.390502929688	-117.4978179931641	1009.461791992188	1413.751098632812	-268.5935974121094	1123.234008789062	1383.062744140625	-71.57498168945312	939.2461547851562	1470.068725585938	-80.58277130126953	847.8917846679688	1467.565673828125	-167.1747283935547	784.5895385742188	1347.969116210938	-104.2953796386719	764.862548828125	1137.357055664062	-58.31872940063477	868.1648559570312	1131.2626953125	-32.59451675415039	787.6926879882812	874.5618286132812	-125.0937423706055	780.4315185546875	869.3285522460938	-37.18314743041992	756.1970825195312	1020.844360351562	-51.0791015625	800.8954467773438	687.970947265625	-139.669677734375	771.810791015625	775.8284301757812	-58.4470329284668	769.5686645507812	779.3544311523438	-129.2414245605469	1185.048583984375	1503.637451171875	-222.7344512939453	1263.703125	1441.274047851562	-219.5457153320312	1349.29296875	1189.764892578125	-196.7496490478516	1263.81103515625	1143.351440429688	-171.1963958740234	1334.963500976562	927.6555786132812	-318.8471984863281	1416.6708984375	925.2991943359375	-276.5842895507812	1374.900756835938	1118.2490234375	-215.7357940673828	1329.02880859375	747.8980102539062	-333.3727111816406	1351.326293945312	823.1063842773438	-358.7472534179688	1416.32177734375	823.0247802734375	-320.0623168945312	1073.574096679688	1694.054443359375	-268.0401306152344	880.267578125	1653.520751953125	-343.5031433105469	962.0130004882812	1659.166870117188	-398.5825805664062	957.8004760742188	1690.724243164062	-182.1766967773438	853.5819091796875	926.8333129882812	-174.0401000976562	1227.3369140625	941.7467041015625	-221.1117248535156	1145.65869140625	968.6010131835938	-317.9434204101562	910.2877807617188	980.6814575195312	-286.8271789550781	919.1098022460938	534.6210327148438	-404.2675170898438	877.1113891601562	643.3365478515625	-314.2394714355469	1018.956115722656	37.55994415283203	-365.2080993652344	955.5147705078125	279.8231506347656	-356.2203674316406	1039.99609375	72.11538696289062	-584.7537231445312	1066.854370117188	72.63323211669922	-531.0781860351562	974.9146118164062	53.47912979125977	-481.4377746582031	1078.815185546875	46.88227462768555	-306.0925598144531	1194.404418945312	506.0339965820312	-181.4379425048828	1226.33837890625	773.4434204101562	-228.7937469482422	1178.118530273438	35.27093505859375	-15.27829360961914	1196.32861328125	385.5253295898438	-142.0733032226562	1136.150268554688	27.14353179931641	-250.9672546386719	1114.35107421875	40.4537467956543	-185.6860961914062	1207.89697265625	27.4361743927002	-162.563720703125	1131.960693359375	38.46084976196289	39.8636360168457	
339	3.38	1133.374877929688	1048.040771484375	-105.525146484375	972.1024780273438	1025.480102539062	-87.23077392578125	1046.653930664062	1101.7724609375	-89.26650238037109	1011.582885742188	1286.189086914062	-316.568115234375	1053.635131835938	1247.554565429688	-70.50659942626953	1028.39306640625	1512.750610351562	-124.6240158081055	1008.658813476562	1412.137329101562	-275.6277770996094	1123.719848632812	1381.698120117188	-79.3729248046875	939.5831909179688	1468.161987304688	-87.11679077148438	847.6422729492188	1465.537475585938	-173.1373138427734	784.9887084960938	1345.850952148438	-109.8109436035156	766.2291259765625	1135.32861328125	-63.17808151245117	869.5252685546875	1129.35302734375	-38.54762649536133	788.2944946289062	872.4456787109375	-129.9035491943359	782.099609375	867.3256225585938	-41.91051483154297	757.6871337890625	1018.852416992188	-55.68125152587891	801.5178833007812	685.8785400390625	-144.4126586914062	773.2598876953125	773.7935180664062	-62.89777755737305	770.2618408203125	777.2045288085938	-133.7395477294922	1184.3173828125	1502.434692382812	-230.8068695068359	1263.145751953125	1440.233520507812	-228.2270812988281	1349.449829101562	1188.840209960938	-206.5803070068359	1264.284912109375	1142.200439453125	-180.4276275634766	1334.130249023438	926.9985961914062	-329.0285339355469	1416.351806640625	924.6810913085938	-287.7223205566406	1374.9990234375	1117.367065429688	-225.9590148925781	1328.240112304688	747.20849609375	-343.8505859375	1350.193481445312	822.5059814453125	-369.271240234375	1415.597045898438	822.3828125	-331.3117065429688	1072.158325195312	1692.373291015625	-275.7593688964844	878.3280639648438	1651.457641601562	-349.7212829589844	959.6207885742188	1657.1689453125	-405.4000854492188	957.2265014648438	1689.059692382812	-188.8431091308594	854.3912353515625	925.0079956054688	-181.0267791748047	1227.878173828125	940.39697265625	-229.4942169189453	1145.890380859375	967.1656494140625	-326.1076965332031	910.4317626953125	979.058349609375	-294.0965881347656	917.8310546875	533.7452392578125	-411.3080444335938	876.67578125	641.5702514648438	-320.7653198242188	1017.193237304688	36.36930847167969	-390.1839904785156	954.7335205078125	278.2977905273438	-371.9087524414062	1033.921020507812	76.41131591796875	-609.19677734375	1061.8125	75.58623504638672	-556.094970703125	970.6962890625	55.61650848388672	-505.1270141601562	1077.785400390625	44.00970458984375	-332.0855712890625	1194.360595703125	505.1741027832031	-185.3562927246094	1226.182006835938	771.9141845703125	-235.7120513916016	1177.97802734375	35.58408355712891	-15.34023952484131	1196.390747070312	384.9477233886719	-144.6702423095703	1135.856323242188	26.90462493896484	-250.9939422607422	1114.28662109375	40.36859130859375	-185.6486511230469	1207.855224609375	27.41930961608887	-162.5804748535156	1131.795288085938	38.96753311157227	39.81394195556641	
340	3.39	1134.19287109375	1046.534790039062	-113.5046157836914	973.0165405273438	1023.561157226562	-94.70713043212891	1047.379760742188	1100.017211914062	-96.90359497070312	1010.783203125	1284.487060546875	-323.7229919433594	1054.195678710938	1245.784912109375	-78.06822204589844	1028.09765625	1511.014526367188	-131.7686920166016	1007.728942871094	1410.412475585938	-282.6890869140625	1124.016845703125	1380.274169921875	-87.23564910888672	939.7784423828125	1466.143188476562	-93.68041229248047	847.2113647460938	1463.357055664062	-179.1863708496094	785.2611083984375	1343.58056640625	-115.4116821289062	767.4332885742188	1133.14404296875	-68.17413330078125	870.7339477539062	1127.287963867188	-44.60447311401367	788.7717895507812	870.1942749023438	-134.8756713867188	783.6142578125	865.1712036132812	-46.81454086303711	759.0482788085938	1016.707702636719	-60.40639877319336	801.9881591796875	683.6402587890625	-149.3442535400391	774.5909423828125	771.6187744140625	-67.53447723388672	770.8201293945312	774.9201049804688	-138.4044647216797	1183.4443359375	1501.139770507812	-238.8777770996094	1262.449340820312	1439.111572265625	-236.8875122070312	1349.461669921875	1187.83056640625	-216.3086700439453	1264.6416015625	1141.007202148438	-189.5009155273438	1333.189086914062	926.2552490234375	-339.0292358398438	1415.896118164062	923.9837646484375	-298.7090454101562	1374.953735351562	1116.405517578125	-236.0753479003906	1327.324584960938	746.4287109375	-354.1963500976562	1348.947021484375	821.8201904296875	-379.6648559570312	1414.72509765625	821.6314086914062	-342.384033203125	1070.574340820312	1690.60107421875	-283.4625244140625	876.2374267578125	1649.295776367188	-355.9414367675781	957.0780639648438	1655.0869140625	-412.2071838378906	956.4907836914062	1687.279907226562	-195.504150390625	855.1764526367188	923.0428466796875	-188.08056640625	1228.313110351562	938.9927978515625	-237.8440399169922	1146.062377929688	965.6678466796875	-334.2906188964844	910.5034790039062	977.2902221679688	-301.4642333984375	916.72314453125	532.6736450195312	-418.183837890625	876.3485107421875	639.5794067382812	-327.1752014160156	1014.535949707031	35.55247497558594	-414.469482421875	953.638671875	276.904052734375	-387.1377868652344	1026.666870117188	80.96566772460938	-632.7643432617188	1055.70263671875	78.79232788085938	-580.3504638671875	965.5219116210938	58.04610061645508	-527.9105224609375	1076.054321289062	41.46123504638672	-357.5584411621094	1194.306640625	504.2804260253906	-189.6109924316406	1225.99755859375	770.3742065429688	-242.8289184570312	1177.8818359375	35.937744140625	-15.42663764953613	1196.456298828125	384.2973022460938	-147.5897369384766	1135.570922851562	26.67374420166016	-251.0502777099609	1114.230590820312	40.29144668579102	-185.640869140625	1207.821533203125	27.39844512939453	-162.5992889404297	1131.672119140625	39.55235290527344	39.75944519042969	
